Coordinates
version=1
nRows=25
nColumns=33
inDegrees=yes

Units are S.I. units (second, meters, Newtons, ...)
Angles are in degrees.

endheader
time	ground_thorax_rot_x	ground_thorax_rot_y	ground_thorax_rot_z	ground_thorax_tx	ground_thorax_ty	ground_thorax_tz	clav_prot_r	clav_elev_r	scapula_abduction_r	scapula_elevation_r	scapula_upward_rot_r	scapula_winging_r	shoulder_elv_r	plane_of_elev_r	axial_rot_r	elbow_flexion_r	pro_sup_r	wrist_flex_r	wrist_dev_r	clav_prot_l	clav_elev_l	scapula_abduction_l	scapula_elevation_l	scapula_upward_rot_l	scapula_winging_l	shoulder_elv_l	plane_of_elev_l	axial_rot_l	elbow_flexion_l	pro_sup_l	wrist_flex_l	wrist_dev_l	
6.4900	34.203633	18.511002	22.797732	-209.245764	829.159455	-6.536160	11.756583	39.171816	37.763508	45.000000	-31.028714	-1889.120948	-2273.083575	146.373767	-132.816561	1460.000775	68.349409	17.355273	4.458561	8.608627	-45.000000	-38.501310	45.000000	-45.000000	2256.946159	-4770.884726	134.828232	-180.000000	371.501403	37.971865	6.855984	-23.464613	
6.5000	34.293939	18.272802	22.411069	-211.764801	830.106958	-6.525062	11.719174	39.122614	37.720303	45.000000	-31.162814	-1889.168039	-2273.012941	146.399942	-132.413411	1460.627052	73.433398	17.028914	4.324822	8.624528	-45.000000	-38.482032	45.000000	-45.000000	2257.104547	-4770.791270	134.829733	-180.000000	371.558713	38.429113	6.660298	-23.490723	
6.5100	34.382714	18.032628	22.021087	-214.236468	831.019008	-6.509588	11.686378	39.061536	37.683039	45.000000	-31.312002	-1889.216890	-2273.021926	146.476768	-131.615213	1461.558200	81.533709	16.542354	4.227911	8.635530	-45.000000	-38.462204	45.000000	-45.000000	2257.269524	-4770.702787	134.811119	-180.000000	371.627776	39.097774	6.436966	-23.524214	
6.5200	34.460405	17.800652	21.652770	-216.655697	831.891435	-6.488884	11.645951	39.008991	37.640633	45.000000	-31.457143	-1889.257806	-2273.090362	146.608683	-130.481115	1462.716607	91.800010	15.960222	4.174825	8.641099	-45.000000	-38.434654	45.000000	-45.000000	2257.428423	-4770.619423	134.805666	-180.000000	371.705893	39.896124	6.188776	-23.554657	
6.5300	34.529773	17.578544	21.298874	-219.017587	832.720728	-6.462600	11.609330	38.952433	37.589632	45.000000	-31.615103	-1889.296054	-2273.203613	146.769198	-129.096089	1464.017011	103.514359	15.308777	4.171918	8.654595	-45.000000	-38.411748	45.000000	-45.000000	2257.587124	-4770.544626	134.799183	-180.000000	371.782310	40.770926	5.935199	-23.583596	
6.5400	34.588951	17.371824	20.967828	-221.318543	833.504182	-6.430911	11.566297	38.906970	37.524473	45.000000	-31.761773	-1889.326563	-2273.297448	146.924021	-127.787541	1465.166591	113.889280	14.739643	4.208090	8.673557	-45.000000	-38.393029	45.000000	-45.000000	2257.729869	-4770.483831	134.814858	-180.000000	371.838667	41.526963	5.704809	-23.599924	
6.5500	34.642561	17.175384	20.647101	-223.556557	834.239630	-6.394613	11.532601	38.855483	37.452456	45.000000	-31.925777	-1889.355421	-2273.365594	147.049077	-126.622297	1466.133929	122.684995	14.247886	4.277021	8.702334	-45.000000	-38.385653	45.000000	-45.000000	2257.868660	-4770.437834	134.831358	-180.000000	371.873426	42.177033	5.506229	-23.611068	
6.5600	34.690854	16.983599	20.331362	-225.731518	834.925331	-6.354945	11.487666	38.814120	37.373487	45.000000	-32.059476	-1889.381491	-2273.375719	147.128914	-125.853649	1466.707073	127.894332	13.942191	4.356907	8.731078	-45.000000	-38.379636	45.000000	-45.000000	2257.992321	-4770.403662	134.859195	-180.000000	371.878484	42.599785	5.351464	-23.609531	
6.5700	34.738192	16.788230	20.007446	-227.844703	835.559915	-6.313376	11.444235	38.768830	37.296966	45.000000	-32.181890	-1889.412343	-2273.348912	147.157524	-125.435341	1466.950072	130.174280	13.770770	4.443572	8.759151	-45.000000	-38.376828	45.000000	-45.000000	2258.113596	-4770.379179	134.875555	-180.000000	371.860926	42.878620	5.234903	-23.605105	
6.5800	34.775098	16.601976	19.700716	-229.897972	836.142579	-6.271112	11.405288	38.725424	37.219107	45.000000	-32.313045	-1889.436509	-2273.275204	147.151104	-125.304600	1466.940133	130.073311	13.720978	4.522240	8.786940	-45.000000	-38.375990	45.000000	-45.000000	2258.225065	-4770.363783	134.908641	-180.000000	371.834226	43.071612	5.136342	-23.593615	
6.5900	34.798730	16.426873	19.417643	-231.892951	836.673259	-6.228898	11.382104	38.672930	37.147700	45.000000	-32.488227	-1889.452144	-2273.203300	147.142402	-125.205339	1466.928575	129.924646	13.671146	4.601647	8.820360	-45.000000	-38.378795	45.000000	-45.000000	2258.340684	-4770.355278	134.948396	-180.000000	371.817744	43.358022	5.027652	-23.584677	
6.6000	34.809913	16.264597	19.158970	-233.829883	837.152788	-6.186684	11.361588	38.619550	37.072124	45.000000	-32.679930	-1889.457627	-2273.133544	147.138876	-125.125750	1466.915133	129.717280	13.632621	4.675308	8.857771	-45.000000	-38.381545	45.000000	-45.000000	2258.452439	-4770.350710	135.001767	-180.000000	371.811227	43.725089	4.903913	-23.573343	
6.6100	34.813977	16.109037	18.914959	-235.707887	837.582986	-6.143866	11.342815	38.563567	36.998224	45.000000	-32.875724	-1889.460523	-2273.080389	147.138044	-125.067529	1466.890908	129.444531	13.595492	4.752420	8.898363	-45.000000	-38.385374	45.000000	-45.000000	2258.566012	-4770.353304	135.053547	-180.000000	371.809295	44.163616	4.773534	-23.563649	
6.6200	34.810793	15.962676	18.691644	-237.525149	837.966456	-6.099537	11.327156	38.508798	36.917999	45.000000	-33.077890	-1889.456811	-2273.028724	147.135299	-125.019552	1466.860835	129.101947	13.566865	4.825364	8.938288	-45.000000	-38.385290	45.000000	-45.000000	2258.674094	-4770.361487	135.113268	-180.000000	371.809647	44.660678	4.635808	-23.552813	
6.6300	34.804031	15.823333	18.484390	-239.280241	838.306186	-6.053140	11.311799	38.451467	36.845209	45.000000	-33.280661	-1889.452913	-2272.989913	147.138338	-124.989783	1466.819706	128.690473	13.539426	4.899738	8.980096	-45.000000	-38.387871	45.000000	-45.000000	2258.785121	-4770.382172	135.171081	-180.000000	371.811049	45.205580	4.496841	-23.543724	
6.6400	34.792053	15.696680	18.300708	-240.972379	838.605173	-6.004540	11.300723	38.395175	36.771001	45.000000	-33.491743	-1889.443239	-2272.950158	147.142927	-124.969074	1466.767993	128.210192	13.520298	4.968805	9.021687	-45.000000	-38.390739	45.000000	-45.000000	2258.889103	-4770.409618	135.239192	-180.000000	371.810603	45.789348	4.354767	-23.532815	
6.6500	34.778065	15.574786	18.127999	-242.602029	838.866110	-5.954135	11.289398	38.337542	36.702794	45.000000	-33.703122	-1889.431467	-2272.920376	147.150800	-124.965102	1466.703233	127.667785	13.503673	5.036773	9.064345	-45.000000	-38.396094	45.000000	-45.000000	2258.991798	-4770.444178	135.301962	-180.000000	371.805143	46.404138	4.214460	-23.522155	
6.6600	34.761655	15.458068	17.967940	-244.170664	839.091184	-5.902588	11.281330	38.283523	36.624461	45.000000	-33.919885	-1889.412143	-2272.881229	147.150295	-124.961622	1466.637693	127.070233	13.495401	5.093600	9.103210	-45.000000	-38.397755	45.000000	-45.000000	2259.082166	-4770.477986	135.370179	-180.000000	371.795438	47.039790	4.073161	-23.508571	
6.6700	34.746277	15.340169	17.813066	-245.680480	839.281948	-5.850790	11.270903	38.228203	36.550559	45.000000	-34.129832	-1889.393488	-2272.852630	147.150485	-124.969905	1466.563831	126.431106	13.486877	5.148422	9.141334	-45.000000	-38.397582	45.000000	-45.000000	2259.174565	-4770.514831	135.427447	-180.000000	371.783294	47.687552	3.935602	-23.495241	
6.6800	34.730088	15.229819	17.673229	-247.133841	839.439442	-5.799635	11.264365	38.178414	36.464679	45.000000	-34.338947	-1889.367039	-2272.814080	147.146652	-124.969935	1466.493716	125.756851	13.485925	5.189623	9.174984	-45.000000	-38.392835	45.000000	-45.000000	2259.253432	-4770.551728	135.495394	-180.000000	371.770919	48.340452	3.797668	-23.478134	
6.6900	34.716444	15.116467	17.538837	-248.532700	839.564309	-5.750116	11.254287	38.126153	36.385230	45.000000	-34.539838	-1889.344498	-2272.789323	147.141439	-124.976434	1466.417704	125.060188	13.481179	5.230948	9.209513	-45.000000	-38.383928	45.000000	-45.000000	2259.339584	-4770.592886	135.549484	-180.000000	371.758187	48.993440	3.664853	-23.462014	
6.7000	34.701960	15.015968	17.426078	-249.878568	839.656999	-5.703394	11.249367	38.081690	36.292312	45.000000	-34.737920	-1889.312978	-2272.749284	147.137060	-124.967889	1466.352753	124.346102	13.485509	5.255443	9.237783	-45.000000	-38.371618	45.000000	-45.000000	2259.408839	-4770.638449	135.625002	-180.000000	371.749644	49.641339	3.531453	-23.442377	
6.7100	34.688383	14.925801	17.329496	-251.172400	839.717886	-5.660935	11.244289	38.032132	36.216798	45.000000	-34.942644	-1889.290001	-2272.724736	147.142312	-124.969831	1466.276608	123.620996	13.485679	5.283479	9.271709	-45.000000	-38.362981	45.000000	-45.000000	2259.488056	-4770.693616	135.692508	-180.000000	371.745620	50.288065	3.401738	-23.424041	
6.7200	34.673366	14.854968	17.252019	-252.414855	839.747391	-5.624368	11.243691	37.984706	36.139543	45.000000	-35.155376	-1889.260868	-2272.693753	147.157980	-124.970187	1466.200594	122.887160	13.494460	5.301170	9.303810	-45.000000	-38.359887	45.000000	-45.000000	2259.553988	-4770.752851	135.773657	-180.000000	371.744498	50.935323	3.271124	-23.403771	
6.7300	34.659632	14.785317	17.173218	-253.606369	839.745994	-5.595301	11.239134	37.928788	36.076121	45.000000	-35.377122	-1889.238526	-2272.683748	147.171183	-124.984746	1466.110772	122.156959	13.499178	5.326936	9.340593	-45.000000	-38.358471	45.000000	-45.000000	2259.630876	-4770.810149	135.828466	-180.000000	371.740003	51.582947	3.145218	-23.386984	
